<?xml version="1.0" encoding="UTF-8" standalone="no"?>
<!-- Created with Inkscape (http://www.inkscape.org/) -->

<svg
   xmlns:dc="http://purl.org/dc/elements/1.1/"
   xmlns:cc="http://creativecommons.org/ns#"
   xmlns:rdf="http://www.w3.org/1999/02/22-rdf-syntax-ns#"
   xmlns:svg="http://www.w3.org/2000/svg"
   xmlns="http://www.w3.org/2000/svg"
   xmlns:sodipodi="http://sodipodi.sourceforge.net/DTD/sodipodi-0.dtd"
   xmlns:inkscape="http://www.inkscape.org/namespaces/inkscape"
   width="132.5182mm"
   height="85.940422mm"
   viewBox="0 0 132.5182 85.940422"
   version="1.1"
   id="svg8"
   inkscape:version="0.92.3 (2405546, 2018-03-11)"
   sodipodi:docname="rpark.svg">
  <defs
     id="defs2" />
  <sodipodi:namedview
     id="base"
     pagecolor="#ffffff"
     bordercolor="#666666"
     borderopacity="1.0"
     inkscape:pageopacity="0.0"
     inkscape:pageshadow="2"
     inkscape:zoom="1.4"
     inkscape:cx="393.72806"
     inkscape:cy="135.18648"
     inkscape:document-units="mm"
     inkscape:current-layer="layer1"
     showgrid="false"
     fit-margin-top="0"
     fit-margin-left="0"
     fit-margin-right="0"
     fit-margin-bottom="0"
     inkscape:window-width="1920"
     inkscape:window-height="1017"
     inkscape:window-x="-8"
     inkscape:window-y="-8"
     inkscape:window-maximized="1" />
  <metadata
     id="metadata5">
    <rdf:RDF>
      <cc:Work
         rdf:about="">
        <dc:format>image/svg+xml</dc:format>
        <dc:type
           rdf:resource="http://purl.org/dc/dcmitype/StillImage" />
        <dc:title></dc:title>
      </cc:Work>
    </rdf:RDF>
  </metadata>
  <g
     inkscape:label="Layer 1"
     inkscape:groupmode="layer"
     id="layer1"
     transform="translate(-33.841757,-137.53602)">
    <path
       style="fill:#46b986;stroke-width:0.26458332"
       d="m 71.374576,223.38173 c -0.3638,-0.0634 -1.37583,-0.23907 -2.24896,-0.39033 -2.39389,-0.41472 -6.41173,-1.7056 -8.97002,-2.88194 -10.445131,-4.80284 -18.192731,-14.76239 -20.388473,-26.20943 -0.912029,-4.75466 -0.804776,-10.53108 0.283648,-15.27659 0.420199,-1.83206 1.628978,-5.3639 1.95533,-5.71313 0.1989,-0.21285 1.303219,0.51484 6.746599,4.44565 l 2.38125,1.71957 0.132292,-9.76201 c 0.07276,-5.3691 0.191823,-9.8138 0.264583,-9.87711 1.923886,-1.67392 5.473624,-3.97504 8.024582,-5.20193 5.672119,-2.72803 8.738879,-3.46781 15.126459,-3.6489 3.43217,-0.0973 5.09348,-0.0252 7.01146,0.3043 24.450604,4.20052 37.761344,30.50419 26.653844,52.67125 -4.92728,9.8333 -14.123714,16.84639 -25.330934,19.31707 -1.90679,0.42036 -10.08869,0.77425 -11.64166,0.50353 z m 9.525,-20.13165 c 2.91762,-0.96146 4.65256,-2.04697 6.91384,-4.32581 8.25867,-8.32281 5.88319,-22.19278 -4.66488,-27.23733 -2.7672,-1.3234 -4.47976,-1.70657 -7.54063,-1.68714 -5.22901,0.0332 -9.67333,2.11919 -13.04501,6.12286 -4.227716,5.02015 -5.11607,12.56011 -2.16581,18.38245 3.89615,7.68909 12.53064,11.37198 20.50249,8.74497 z m -6.94585,-10.76892 c -2.50723,-0.92795 -3.90207,-2.91205 -3.90207,-5.55056 0,-1.83023 0.64543,-3.23121 2.00482,-4.35174 2.62143,-2.16081 6.47471,-1.57408 8.45805,1.28788 0.62238,0.8981 0.78465,1.4419 0.85371,2.861 0.0758,1.55737 -0.004,1.90521 -0.71933,3.12915 -1.36118,2.32955 -4.33842,3.49651 -6.69518,2.62427 z m 44.313824,1.63386 0.0706,-6.95806 3.30729,0.0701 c 3.73166,0.0791 4.64445,0.294 5.62807,1.32509 0.88377,0.92643 1.2511,1.91858 1.2511,3.37919 0,3.09972 -2.06791,4.85576 -5.7427,4.87661 -1.05098,0.006 -1.12169,0.0554 -1.27895,0.89366 -0.0916,0.48804 -0.12672,1.41077 -0.0781,2.05052 l 0.0883,1.16318 -1.65806,0.0789 -1.65806,0.0789 z m 6.46498,-1.15322 c 0.19385,-0.26511 0.35246,-0.74841 0.35246,-1.07401 0,-0.99151 -0.68682,-1.42354 -2.2631,-1.42354 h -1.43154 l 0.0268,1.38907 c 0.0147,0.76398 0.0876,1.49202 0.1619,1.61786 0.24614,0.41669 2.77505,0.008 3.15352,-0.50938 z m 2.59533,7.35818 c 0.19262,-0.40018 1.43774,-3.4797 2.76692,-6.84338 l 2.4167,-6.11579 1.3681,-0.16203 c 0.9462,-0.11206 1.43219,-0.0619 1.57593,0.16266 0.17541,0.27402 4.38106,10.71565 5.21941,12.95854 l 0.27197,0.72761 h -1.95731 -1.95731 l -0.30562,-0.92604 -0.30562,-0.92604 h -2.37423 -2.37423 l -0.38693,0.92604 -0.38692,0.92604 h -1.96055 -1.96054 z m 8.00023,-4.37956 c -0.0727,-0.18956 -0.3402,-1.08576 -0.59435,-1.99155 -0.25415,-0.90579 -0.553,-1.70307 -0.66411,-1.77174 -0.18638,-0.11519 -1.31173,3.16058 -1.31173,3.8183 0,0.17201 0.54883,0.28966 1.35123,0.28966 1.00142,0 1.31698,-0.0892 1.21896,-0.34467 z m 6.95481,-1.73738 v -6.84455 l 0.8599,-0.12937 c 1.54534,-0.2325 6.35711,0.0844 7.09791,0.46751 1.79812,0.92985 2.88449,3.52732 2.32411,5.55686 -0.40451,1.46501 -0.92121,2.13293 -2.10195,2.71711 l -1.044,0.51653 1.72368,2.1349 c 0.94803,1.17419 1.72369,2.2003 1.72369,2.28023 0,0.0799 -0.88672,0.14533 -1.97048,0.14533 h -1.97047 l -1.53526,-2.14635 -1.53525,-2.14635 -0.0769,2.14635 -0.0768,2.14635 h -1.7091 -1.70909 z m 6.52671,-0.71208 c 0.48547,-0.66391 0.44192,-1.96014 -0.0854,-2.54285 -0.30944,-0.34192 -0.81392,-0.48386 -1.7198,-0.48386 h -1.2819 v 1.88575 1.88575 l 1.36733,-0.13139 c 0.90478,-0.0869 1.48656,-0.29444 1.71979,-0.6134 z m 6.23505,0.61132 0.0705,-6.94532 h 1.5875 1.5875 l 0.1323,3.04271 0.13229,3.04271 0.76797,-1.19062 c 0.42239,-0.65485 1.22189,-1.8925 1.77668,-2.75033 0.55478,-0.85784 1.05184,-1.68915 1.10458,-1.84736 0.0794,-0.23819 3.56646,-0.31336 3.79794,-0.0819 0.0333,0.0333 -0.88458,1.51829 -2.03969,3.30002 -1.15511,1.78174 -2.10019,3.36573 -2.10019,3.51998 0,0.26225 1.66615,2.73427 3.63802,5.39763 0.47294,0.63879 0.8599,1.22811 0.8599,1.3096 0,0.0815 -0.93331,0.14817 -2.07401,0.14817 h -2.07401 l -1.64141,-2.63718 c -0.90278,-1.45044 -1.75542,-2.70763 -1.89475,-2.79374 -0.15527,-0.096 -0.25332,0.92483 -0.25332,2.63718 v 2.79374 h -1.72419 -1.72418 z m -36.83884,-13.69219 v -5.55625 h 2.71611 c 2.12323,0 2.91734,0.10596 3.63802,0.48546 2.5291,1.33177 2.39529,5.67636 -0.20578,6.68103 -0.58515,0.22602 -0.56889,0.26798 0.7276,1.87691 0.72937,0.90514 1.32613,1.74098 1.32613,1.85741 0,0.11643 -0.70196,0.21169 -1.55991,0.21169 h -1.55992 l -0.83587,-1.30258 c -1.38656,-2.16078 -1.60055,-2.2032 -1.60055,-0.31732 v 1.6199 h -1.32291 -1.32292 z m 4.77989,-0.27389 c 0.58664,-0.31396 0.7113,-1.802 0.19428,-2.31903 -0.17463,-0.17462 -0.76994,-0.3175 -1.32292,-0.3175 h -1.00542 v 1.45521 c 0,1.44744 0.004,1.45521 0.81115,1.45521 0.44613,0 1.04144,-0.12325 1.32291,-0.27389 z m 4.31218,5.23483 c 0.0845,-0.32743 1.03766,-2.79797 2.11818,-5.49011 l 1.96458,-4.89479 1.16463,-0.0785 1.16463,-0.0785 2.17085,5.37014 c 1.19397,2.95357 2.17039,5.45943 2.16983,5.56857 -5.3e-4,0.10914 -0.68929,0.19844 -1.53051,0.19844 -1.45647,0 -1.5438,-0.0379 -1.8291,-0.79375 -0.29354,-0.77765 -0.33712,-0.79375 -2.14879,-0.79375 -1.81677,0 -1.85404,0.0139 -2.12589,0.79375 -0.2635,0.75587 -0.34817,0.79375 -1.77436,0.79375 -1.42224,0 -1.48992,-0.03 -1.34405,-0.59531 z m 6.25376,-3.72318 c 0,-0.19236 -0.19979,-0.93611 -0.44399,-1.65278 l -0.44399,-1.30304 -0.362,0.88718 c -0.1991,0.48794 -0.43091,1.23169 -0.51513,1.65277 -0.14635,0.73178 -0.11074,0.76561 0.806,0.76561 0.61871,0 0.95911,-0.12413 0.95911,-0.34974 z m 5.55625,-1.26563 v -5.58412 l 3.10886,0.10387 c 3.60489,0.12043 4.44357,0.43966 5.55081,2.11282 1.47045,2.22199 1.03594,6.35814 -0.81194,7.72894 -1.29514,0.96077 -2.41768,1.22261 -5.24137,1.22261 h -2.60636 z m 4.80145,2.93188 c 0.53074,-0.14741 1.15582,-0.55928 1.38906,-0.91525 0.83625,-1.27628 0.3381,-4.30638 -0.7784,-4.73482 -0.23557,-0.0904 -0.89482,-0.16436 -1.465,-0.16436 h -1.03669 v 3.04271 c 0,3.38676 -0.0515,3.31128 1.89103,2.77172 z m 6.57564,-2.90401 v -5.55625 h 1.48351 c 1.24407,0 1.4576,0.0675 1.32292,0.41851 -0.0883,0.23019 -0.1606,2.7305 -0.1606,5.55625 v 5.13774 h -1.32292 -1.32291 z m 8.22647,5.24942 c -3.09547,-0.88954 -4.75868,-4.84786 -3.26294,-7.76556 1.03493,-2.01881 2.69977,-3.04011 4.95574,-3.04011 4.82604,0 7.3873,5.3852 4.32624,9.09615 -1.45211,1.76039 -3.65992,2.38745 -6.01904,1.70952 z m 2.607,-2.86817 c 0.11378,0 0.52076,-0.31389 0.90441,-0.69754 1.3741,-1.3741 0.62797,-3.85549 -1.26617,-4.21083 -2.40762,-0.45167 -3.96739,2.20591 -2.39289,4.0771 0.65098,0.77364 1.47437,1.1211 2.19542,0.92641 0.1938,-0.0523 0.44546,-0.0951 0.55923,-0.0951 z M 48.620409,174.59925 c -0.509323,-0.40534 -1.418761,-1.07943 -2.020973,-1.49797 -4.664316,-3.24174 -10.939921,-7.82813 -11.539192,-8.43317 -0.400331,-0.40419 -0.852196,-1.16501 -1.004146,-1.69073 -0.179515,-0.62108 -0.248918,-5.24353 -0.198168,-13.1986 l 0.0781,-12.24276 3.042708,2.17677 c 8.891827,6.36128 11.392509,8.22198 11.87608,8.83675 0.292874,0.37232 0.603169,1.17459 0.689544,1.78281 0.08638,0.60823 0.12218,6.48292 0.07957,13.05487 l -0.07748,11.94902 z"
       id="path826"
       inkscape:connector-curvature="0" />
  </g>
</svg>
