<?xml version="1.0" encoding="UTF-8" standalone="no"?>
<!-- Created with Inkscape (http://www.inkscape.org/) -->

<svg
   version="1.1"
   id="svg2"
   xml:space="preserve"
   width="649.33331"
   height="125.33333"
   viewBox="0 0 649.33331 125.33333"
   sodipodi:docname="RW_Ogólne_poziom.eps"
   xmlns:inkscape="http://www.inkscape.org/namespaces/inkscape"
   xmlns:sodipodi="http://sodipodi.sourceforge.net/DTD/sodipodi-0.dtd"
   xmlns="http://www.w3.org/2000/svg"
   xmlns:svg="http://www.w3.org/2000/svg"><defs
     id="defs6"><clipPath
       clipPathUnits="userSpaceOnUse"
       id="clipPath18"><path
         d="M 2.28516,929.879 H 963.691 V 0.703125 H 2.28516 Z"
         clip-rule="evenodd"
         id="path16" /></clipPath><radialGradient
       fx="86.298798"
       fy="277.52899"
       cx="86.298798"
       cy="277.52899"
       r="0"
       gradientUnits="userSpaceOnUse"
       gradientTransform="matrix(10,0,0,10,-380,-2310)"
       id="radialGradient24"><stop
         style="stop-opacity:1;stop-color:#c8171e"
         offset="0"
         id="stop20" /><stop
         style="stop-opacity:1;stop-color:#ed1b26"
         offset="1"
         id="stop22" /></radialGradient><clipPath
       clipPathUnits="userSpaceOnUse"
       id="clipPath44"><path
         d="m 4490.99,239.867 77.35,-222.449 h 121.84 l 149.53,317.906 h -114.07 l -94.22,-211.129 -80.11,211.129 h -120.47 l -81.43,-211.129 h -1.83 l -91.97,211.129 H 4141.53 L 4290.44,17.418 h 122.29 z m -1048.76,-33.125 103.93,33.309 1.86,-74.949 -104.96,-33.633 0.41,-36.469 h 240.8 l 0.85,-76.6172 h -233.1 -112.47 -6.35 l -3.5,316.9412 h 111.11 z m -1927.89,33.125 77.35,-222.449 h 121.84 l 149.53,317.906 h -114.08 l -94.21,-211.129 -80.11,211.129 h -120.47 l -81.44,-211.129 h -1.82 l -91.97,211.129 H 1164.88 L 1313.79,17.418 h 122.29 z m 948.25,0.813 c 0.01,5.929 2.52,10.648 7.55,14.152 5.02,3.512 13.46,5.258 25.32,5.258 119.57,0 187.71,0 204.44,0 12.78,0 21.53,-1.344 26.24,-4.039 4.71,-2.703 7.06,-7.824 7.05,-15.371 l -0.08,-92.219 -0.04,-36.402 c -0.01,-5.118 -2.82,-9.368 -8.45,-12.7387 -5.64,-3.3711 -14.38,-5.0547 -26.25,-5.0547 -118.65,0 -186.33,0 -203.07,0 -12.78,0 -21.45,1.2813 -26,3.8438 -4.57,2.5626 -6.84,7.2146 -6.84,13.9496 z M 2361.6,99.5195 c -0.01,-12.9375 1.65,-23.8554 4.99,-32.7578 3.34,-8.8984 9.57,-16.9844 18.68,-24.2695 8.21,-6.7344 17.03,-11.9297 26.46,-15.5703 9.42,-3.6367 21.59,-6.3321 36.5,-8.086 14.9,-1.7539 33,-2.8984 54.3,-3.4375 21.29,-0.539 52.47,-0.8086 93.54,-0.8086 41.07,0 72.41,0.2696 94,0.8086 21.61,0.5391 39.79,1.6836 54.55,3.4375 14.75,1.7539 27.07,4.4493 36.97,8.086 9.88,3.6406 18.79,8.8359 26.7,15.5703 9.14,7.2851 15.39,15.3711 18.74,24.2695 3.35,8.9024 5.04,19.8203 5.05,32.7578 0.03,30.7465 0.07,67.0075 0.11,108.8005 l 0.04,46.106 c 0.02,12.949 -1.65,23.664 -4.98,32.156 -3.34,8.492 -9.57,16.379 -18.69,23.664 -7.91,7.008 -16.64,12.399 -26.22,16.176 -9.59,3.777 -21.59,6.473 -36.04,8.09 -14.45,1.621 -32.02,2.629 -52.71,3.031 -20.68,0.406 -52.63,0.609 -95.83,0.609 -43.2,0 -75.15,-0.203 -95.83,-0.609 -20.69,-0.402 -38.41,-1.41 -53.16,-3.031 -14.76,-1.617 -27,-4.313 -36.74,-8.09 -9.75,-3.777 -18.57,-9.168 -26.49,-16.176 -9.13,-7.285 -15.38,-15.172 -18.73,-23.664 -3.35,-8.492 -5.04,-19.207 -5.05,-32.156 z M 2175.05,190.527 H 2014.42 L 2230.1,17.418 h 124.12 l -146.37,112.848 v 1.613 c 21.3,0 39.02,1.887 53.17,5.66 14.15,3.781 25.49,9.715 34.01,17.801 8.53,8.086 14.77,18.738 18.74,31.953 3.97,13.207 5.97,29.523 5.99,48.934 0.01,19.418 -2.48,35.457 -7.49,48.136 -5,12.668 -12.83,22.711 -23.47,30.129 -10.64,7.414 -24.33,12.742 -41.05,15.977 -16.73,3.234 -37.73,4.855 -62.97,4.855 h -297.53 l -0.31,-317.906 h 111.79 l 0.24,238.633 h 177.51 c 10.96,0 20.54,-3.039 28.75,-9.106 8.2,-6.066 12.31,-13.816 12.29,-23.254 -0.01,-10.781 -4.27,-19.007 -12.8,-24.668 -8.52,-5.664 -18.41,-8.496 -29.67,-8.496 z m 696.33,-39.234 c -0.03,-29.656 -0.05,-45.031 -0.05,-46.109 -0.03,-28.8442 9.46,-50.6879 28.46,-65.516 19,-14.8321 48.26,-22.25 87.82,-22.25 61.75,0 164.58,0 308.48,0 l 0.07,76.8476 c -180.7,0 -279.43,0 -296.16,0 -10.95,0 -18.93,1.7578 -23.95,5.2539 -5.01,3.5075 -7.52,8.2305 -7.51,14.1645 l -1.35,25.074 0.07,75.226 1.4,26.289 c 0.01,4.852 2.59,8.899 7.77,12.137 5.18,3.235 13.09,4.848 23.74,4.848 16.72,0 115.45,0 296.15,0 l 0.08,78.066 c -143.9,0 -246.72,0 -308.48,0 -39.55,0 -68.83,-7.418 -87.87,-22.246 -19.02,-14.832 -28.55,-36.805 -28.58,-65.926 0,-0.812 -0.02,-16.047 -0.04,-45.703 z m 1098.49,103.133 69.25,-114.453 h -138.73 z m 110.25,-182.8088 32.8,-54.1992 h 124.12 L 4042.5,335.324 H 3899.21 L 3702.22,17.418 h 124.12 l 33.37,54.1992 z"
         id="path42" /></clipPath><radialGradient
       fx="338.23001"
       fy="248.63699"
       cx="338.23001"
       cy="248.63699"
       r="0"
       gradientUnits="userSpaceOnUse"
       gradientTransform="matrix(10,0,0,10,-380,-2310)"
       id="radialGradient50"><stop
         style="stop-opacity:1;stop-color:#c8171e"
         offset="0"
         id="stop46" /><stop
         style="stop-opacity:1;stop-color:#ed1b26"
         offset="1"
         id="stop48" /></radialGradient></defs><sodipodi:namedview
     id="namedview4"
     pagecolor="#ffffff"
     bordercolor="#666666"
     borderopacity="1.0"
     inkscape:pageshadow="2"
     inkscape:pageopacity="0.0"
     inkscape:pagecheckerboard="0" /><g
     id="g8"
     inkscape:groupmode="layer"
     inkscape:label="ink_ext_XXXXXX"
     transform="matrix(1.3333333,0,0,-1.3333333,0,125.33333)"><g
       id="g10"
       transform="scale(0.1)"><g
         id="g12"><g
           id="g14"
           clip-path="url(#clipPath18)"><path
             d="M 2.28516,929.879 H 963.691 V 0.703125 H 2.28516 V 929.879"
             style="fill:url(#radialGradient24);fill-opacity:1;fill-rule:nonzero;stroke:none"
             id="path26" /></g></g><path
         d="m 4451.14,543.266 c 104.83,0 168.99,6.371 192.65,19.121 23.66,12.742 35.41,47.511 35.41,104.437 0,62.289 -11.74,100.387 -35.41,114.438 -23.66,14.054 -87.81,21.004 -192.63,21.004 -104.83,0 -168.99,-6.95 -192.65,-21.004 -23.66,-14.051 -35.41,-52.149 -35.41,-114.438 0,-56.926 11.74,-91.695 35.4,-104.437 23.66,-12.75 87.82,-19.121 192.64,-19.121 z m 0,-130.227 c -188.61,0 -305.18,13.184 -349.53,39.688 -44.34,26.511 -66.61,96.043 -66.95,208.593 0.35,122.836 22.61,198.743 66.97,227.715 44.35,28.969 160.91,43.457 349.53,43.457 188.96,0 305.71,-14.488 350.05,-43.312 44.35,-28.828 66.43,-103.86 66.43,-224.817 v -3.043 c 0.34,-112.55 -21.75,-182.082 -66.27,-208.593 -44.52,-26.504 -161.26,-39.688 -350.23,-39.688"
         style="fill:#231f20;fill-opacity:1;fill-rule:nonzero;stroke:none"
         id="path28" /><path
         d="m 3779.02,418.109 0.02,509.313 v 0 h 188.43 v 0 l -0.01,-509.313 v 0 h -93.96 -94.48"
         style="fill:#231f20;fill-opacity:1;fill-rule:nonzero;stroke:none"
         id="path30" /><path
         d="m 3086.22,548.336 v 0 h 329.72 c 44.88,0 74.32,7.676 88.52,23.176 14.2,15.355 21.39,47.367 21.39,95.75 0,52.871 -6.83,87.781 -20.5,104.73 -13.68,16.805 -42.08,25.203 -85.37,25.203 h -333.75 v 0 z m -188.45,-130.227 0.02,509.313 v 0 h 93.96 v 0 h 496.07 c 90.8,0 151.28,-17.672 181.78,-53.02 29.79,-34.91 44.69,-104.441 44.69,-208.879 v -3.769 c 0.34,-97.34 -16.49,-162.234 -50.67,-194.828 -34.01,-32.594 -102.02,-48.817 -204.04,-48.817 h -467.85 v 0 h -93.96"
         style="fill:#231f20;fill-opacity:1;fill-rule:nonzero;stroke:none"
         id="path32" /><path
         d="M 2415.51,800.09 2301.74,624.383 v 0 h 225.25 v 0 z m -464.36,-381.981 339.91,509.313 h 239.27 L 2870.9,418.109 v 0 h -107.45 -107.28 v 0 l -55.56,89.086 v 0 h -374.77 v 0 l -57.68,-89.086 v 0 h -108.33 -108.68"
         style="fill:#231f20;fill-opacity:1;fill-rule:nonzero;stroke:none"
         id="path34" /><path
         d="m 1356.52,676.531 v 0 h 213.68 c 81.86,0 131.47,2.899 149,8.547 17.35,5.649 26.11,21.871 26.11,48.817 0,29.406 -8.76,47.367 -26.11,53.738 -17.53,6.375 -67.14,9.562 -149,9.562 h -213.68 v 0 z m -188.45,-258.422 0.02,509.313 v 0 h 93.96 v 0 h 308.16 c 157.41,0 257.5,-9.848 299.92,-29.551 42.42,-19.558 63.62,-65.766 63.62,-138.484 0,-66.778 -21.21,-109.219 -63.63,-127.328 -14.73,-6.223 -36.64,-11.442 -65.74,-15.352 v 0 c 22.26,-5.07 40.14,-11.59 53.82,-19.555 39.44,-22.023 62.57,-63.879 69.41,-125.589 l 6.13,-53.454 v 0 h -92.9 -93.25 v 0 l -6.32,53.454 c -3.32,28.968 -11.74,48.523 -25.06,59.097 -13.5,10.434 -37.16,15.645 -71,15.645 h -288.69 v 0 l -0.01,-128.196 v 0 h -93.96 -94.48"
         style="fill:#231f20;fill-opacity:1;fill-rule:nonzero;stroke:none"
         id="path36" /><g
         id="g38"><g
           id="g40"
           clip-path="url(#clipPath44)"><path
             d="m 4490.99,239.867 77.35,-222.449 h 121.84 l 149.53,317.906 h -114.07 l -94.22,-211.129 -80.11,211.129 h -120.47 l -81.43,-211.129 h -1.83 l -91.97,211.129 H 4141.53 L 4290.44,17.418 h 122.29 z m -1048.76,-33.125 103.93,33.309 1.86,-74.949 -104.96,-33.633 0.41,-36.469 h 240.8 l 0.85,-76.6172 h -233.1 -112.47 -6.35 l -3.5,316.9412 h 111.11 z m -1927.89,33.125 77.35,-222.449 h 121.84 l 149.53,317.906 h -114.08 l -94.21,-211.129 -80.11,211.129 h -120.47 l -81.44,-211.129 h -1.82 l -91.97,211.129 H 1164.88 L 1313.79,17.418 h 122.29 z m 948.25,0.813 c 0.01,5.929 2.52,10.648 7.55,14.152 5.02,3.512 13.46,5.258 25.32,5.258 119.57,0 187.71,0 204.44,0 12.78,0 21.53,-1.344 26.24,-4.039 4.71,-2.703 7.06,-7.824 7.05,-15.371 l -0.08,-92.219 -0.04,-36.402 c -0.01,-5.118 -2.82,-9.368 -8.45,-12.7387 -5.64,-3.3711 -14.38,-5.0547 -26.25,-5.0547 -118.65,0 -186.33,0 -203.07,0 -12.78,0 -21.45,1.2813 -26,3.8438 -4.57,2.5626 -6.84,7.2146 -6.84,13.9496 z M 2361.6,99.5195 c -0.01,-12.9375 1.65,-23.8554 4.99,-32.7578 3.34,-8.8984 9.57,-16.9844 18.68,-24.2695 8.21,-6.7344 17.03,-11.9297 26.46,-15.5703 9.42,-3.6367 21.59,-6.3321 36.5,-8.086 14.9,-1.7539 33,-2.8984 54.3,-3.4375 21.29,-0.539 52.47,-0.8086 93.54,-0.8086 41.07,0 72.41,0.2696 94,0.8086 21.61,0.5391 39.79,1.6836 54.55,3.4375 14.75,1.7539 27.07,4.4493 36.97,8.086 9.88,3.6406 18.79,8.8359 26.7,15.5703 9.14,7.2851 15.39,15.3711 18.74,24.2695 3.35,8.9024 5.04,19.8203 5.05,32.7578 0.03,30.7465 0.07,67.0075 0.11,108.8005 l 0.04,46.106 c 0.02,12.949 -1.65,23.664 -4.98,32.156 -3.34,8.492 -9.57,16.379 -18.69,23.664 -7.91,7.008 -16.64,12.399 -26.22,16.176 -9.59,3.777 -21.59,6.473 -36.04,8.09 -14.45,1.621 -32.02,2.629 -52.71,3.031 -20.68,0.406 -52.63,0.609 -95.83,0.609 -43.2,0 -75.15,-0.203 -95.83,-0.609 -20.69,-0.402 -38.41,-1.41 -53.16,-3.031 -14.76,-1.617 -27,-4.313 -36.74,-8.09 -9.75,-3.777 -18.57,-9.168 -26.49,-16.176 -9.13,-7.285 -15.38,-15.172 -18.73,-23.664 -3.35,-8.492 -5.04,-19.207 -5.05,-32.156 z M 2175.05,190.527 H 2014.42 L 2230.1,17.418 h 124.12 l -146.37,112.848 v 1.613 c 21.3,0 39.02,1.887 53.17,5.66 14.15,3.781 25.49,9.715 34.01,17.801 8.53,8.086 14.77,18.738 18.74,31.953 3.97,13.207 5.97,29.523 5.99,48.934 0.01,19.418 -2.48,35.457 -7.49,48.136 -5,12.668 -12.83,22.711 -23.47,30.129 -10.64,7.414 -24.33,12.742 -41.05,15.977 -16.73,3.234 -37.73,4.855 -62.97,4.855 h -297.53 l -0.31,-317.906 h 111.79 l 0.24,238.633 h 177.51 c 10.96,0 20.54,-3.039 28.75,-9.106 8.2,-6.066 12.31,-13.816 12.29,-23.254 -0.01,-10.781 -4.27,-19.007 -12.8,-24.668 -8.52,-5.664 -18.41,-8.496 -29.67,-8.496 z m 696.33,-39.234 c -0.03,-29.656 -0.05,-45.031 -0.05,-46.109 -0.03,-28.8442 9.46,-50.6879 28.46,-65.516 19,-14.8321 48.26,-22.25 87.82,-22.25 61.75,0 164.58,0 308.48,0 l 0.07,76.8476 c -180.7,0 -279.43,0 -296.16,0 -10.95,0 -18.93,1.7578 -23.95,5.2539 -5.01,3.5075 -7.52,8.2305 -7.51,14.1645 l -1.35,25.074 0.07,75.226 1.4,26.289 c 0.01,4.852 2.59,8.899 7.77,12.137 5.18,3.235 13.09,4.848 23.74,4.848 16.72,0 115.45,0 296.15,0 l 0.08,78.066 c -143.9,0 -246.72,0 -308.48,0 -39.55,0 -68.83,-7.418 -87.87,-22.246 -19.02,-14.832 -28.55,-36.805 -28.58,-65.926 0,-0.812 -0.02,-16.047 -0.04,-45.703 z m 1098.49,103.133 69.25,-114.453 h -138.73 z m 110.25,-182.8088 32.8,-54.1992 h 124.12 L 4042.5,335.324 H 3899.21 L 3702.22,17.418 h 124.12 l 33.37,54.1992 h 220.41"
             style="fill:url(#radialGradient50);fill-opacity:1;fill-rule:nonzero;stroke:none"
             id="path52" /></g></g><path
         d="m 277.066,366.965 c 44.137,0 79.934,-35.797 79.934,-79.93 0,-44.125 -35.797,-79.922 -79.934,-79.922 -44.121,0 -79.918,35.797 -79.918,79.922 0,44.133 35.797,79.93 79.918,79.93"
         style="fill:#d3d2d2;fill-opacity:1;fill-rule:evenodd;stroke:none"
         id="path54" /><path
         d="m 277.066,545.219 c 44.137,0 79.934,-35.789 79.934,-79.926 0,-44.133 -35.797,-79.918 -79.934,-79.918 -44.121,0 -79.918,35.785 -79.918,79.918 0,44.137 35.797,79.926 79.918,79.926"
         style="fill:#e9e9e9;fill-opacity:1;fill-rule:evenodd;stroke:none"
         id="path56" /><path
         d="m 277.066,723.477 c 44.137,0 79.934,-35.789 79.934,-79.922 0,-44.133 -35.797,-79.922 -79.934,-79.922 -44.121,0 -79.918,35.789 -79.918,79.922 0,44.133 35.797,79.922 79.918,79.922"
         style="fill:#ffffff;fill-opacity:1;fill-rule:evenodd;stroke:none"
         id="path58" /><path
         d="m 688.906,366.965 c 44.133,0 79.926,-35.797 79.926,-79.93 0,-44.125 -35.793,-79.922 -79.926,-79.922 -44.129,0 -79.922,35.797 -79.922,79.922 0,44.133 35.793,79.93 79.922,79.93"
         style="fill:#d3d2d2;fill-opacity:1;fill-rule:evenodd;stroke:none"
         id="path60" /><path
         d="m 482.992,545.219 c 44.133,0 79.918,-35.789 79.918,-79.926 0,-44.133 -35.785,-79.918 -79.918,-79.918 -44.133,0 -79.922,35.785 -79.922,79.918 0,44.137 35.789,79.926 79.922,79.926"
         style="fill:#e9e9e9;fill-opacity:1;fill-rule:evenodd;stroke:none"
         id="path62" /><path
         d="m 688.906,545.219 c 44.133,0 79.926,-35.789 79.926,-79.926 0,-44.133 -35.793,-79.918 -79.926,-79.918 -44.129,0 -79.922,35.785 -79.922,79.918 0,44.137 35.793,79.926 79.922,79.926"
         style="fill:#e9e9e9;fill-opacity:1;fill-rule:evenodd;stroke:none"
         id="path64" /><path
         d="m 688.906,723.477 c 44.133,0 79.926,-35.789 79.926,-79.922 0,-44.133 -35.793,-79.922 -79.926,-79.922 -44.129,0 -79.922,35.789 -79.922,79.922 0,44.133 35.793,79.922 79.922,79.922"
         style="fill:#d3d2d2;fill-opacity:1;fill-rule:evenodd;stroke:none"
         id="path66" /><path
         d="m 482.992,366.965 c 44.133,0 79.918,-35.797 79.918,-79.93 0,-44.125 -35.785,-79.922 -79.918,-79.922 -44.133,0 -79.922,35.797 -79.922,79.922 0,44.133 35.789,79.93 79.922,79.93"
         style="fill:#ffffff;fill-opacity:1;fill-rule:evenodd;stroke:none"
         id="path68" /></g></g></svg>
