<svg width="242" height="205" viewBox="0 0 242 205" fill="none" xmlns="http://www.w3.org/2000/svg">
<path d="M139.065 114.786C160.38 107.972 173.252 87.4274 167.813 68.8982C162.375 50.3691 140.687 40.8721 119.371 47.6861C98.0552 54.5001 85.1839 75.0448 90.6222 93.5739C96.0604 112.103 117.749 121.6 139.065 114.786Z" fill="black"/>
<path d="M138.163 112.062C157.959 105.734 169.909 86.6406 164.854 69.4165C159.798 52.1923 139.652 43.3595 119.856 49.6878C100.06 56.0161 88.1098 75.109 93.165 92.3332C98.2202 109.557 118.366 118.39 138.163 112.062Z" fill="#FFD300"/>
<path d="M118.662 45.634C123.444 44.6712 125.541 34.2662 123.346 22.3937C121.151 10.5211 115.496 1.67702 110.714 2.63978C105.933 3.60254 103.836 14.0076 106.031 25.8801C108.226 37.7526 113.881 46.5968 118.662 45.634Z" fill="black"/>
<path d="M118.902 42.7438C122.048 42.1103 123.009 32.9998 121.048 22.3948C119.088 11.7899 114.948 3.70637 111.802 4.33984C108.656 4.97332 107.695 14.0839 109.655 24.6888C111.616 35.2938 115.755 43.3772 118.902 42.7438Z" fill="#FFD300"/>
<path d="M158.41 29.4545C163.497 19.4447 164.402 9.54875 160.432 7.35128C156.462 5.15382 149.12 11.487 144.033 21.4968C138.946 31.5066 138.041 41.4026 142.011 43.6C145.981 45.7975 153.323 39.4644 158.41 29.4545Z" fill="black"/>
<path d="M157.052 28.8626C161.514 20.0813 162.837 11.6925 160.006 10.1257C157.176 8.5589 151.263 14.4074 146.801 23.1887C142.338 31.97 141.015 40.3587 143.846 41.9255C146.677 43.4923 152.589 37.6439 157.052 28.8626Z" fill="#FFD300"/>
<path d="M98.0255 59.6125C100.761 56.0413 95.5971 46.9876 86.4914 39.3905C77.3857 31.7934 67.7864 28.5299 65.0508 32.1011C62.3153 35.6723 67.4793 44.726 76.585 52.323C85.6907 59.9201 95.29 63.1837 98.0255 59.6125Z" fill="black"/>
<path d="M95.9545 56.9198C97.7627 54.5594 92.9506 47.4081 85.2065 40.947C77.4624 34.486 69.7188 31.1618 67.9106 33.5223C66.1025 35.8828 70.9146 43.034 78.6587 49.4951C86.4028 55.9561 94.1464 59.2803 95.9545 56.9198Z" fill="#FFD300"/>
<path d="M181.468 51.7674C189.038 45.6173 193.201 37.9858 190.766 34.722C188.332 31.4583 180.222 33.7981 172.652 39.9483C165.082 46.0984 160.919 53.7299 163.353 56.9937C165.788 60.2574 173.898 57.9175 181.468 51.7674Z" fill="black"/>
<path d="M179.212 50.1249C185.61 44.927 189.439 38.8936 187.765 36.6489C186.09 34.4042 179.547 36.7983 173.149 41.9962C166.751 47.1941 162.922 53.2275 164.596 55.4722C166.271 57.7169 172.814 55.3228 179.212 50.1249Z" fill="#FFD300"/>
<path d="M194.333 80.6613C205.988 78.3145 214.822 73.0854 214.063 68.9817C213.304 64.878 203.241 63.4537 191.586 65.8005C179.931 68.1473 171.097 73.3764 171.856 77.4801C172.615 81.5838 182.678 83.008 194.333 80.6613Z" fill="black"/>
<path d="M193.612 77.8345C203.916 75.7598 211.85 71.8137 211.334 69.0206C210.818 66.2274 202.046 65.645 191.742 67.7196C181.439 69.7943 173.505 73.7404 174.021 76.5336C174.537 79.3267 183.309 79.9092 193.612 77.8345Z" fill="#FFD300"/>
<path d="M88.1841 81.9338C89.1955 77.4297 80.796 71.5234 69.4231 68.7417C58.0503 65.9601 48.0108 67.3563 46.9994 71.8604C45.9879 76.3645 54.3875 82.2708 65.7603 85.0525C77.1332 87.8342 87.1726 86.4379 88.1841 81.9338Z" fill="black"/>
<path d="M86.445 80.8906C87.067 78.1209 79.2888 73.8499 69.0719 71.351C58.855 68.852 50.0684 69.0714 49.4465 71.8411C48.8245 74.6107 56.6027 78.8817 66.8196 81.3806C77.0364 83.8796 85.823 83.6602 86.445 80.8906Z" fill="#FFD300"/>
<path d="M202.872 110.198C204.14 106.249 197.125 100.235 187.203 96.7646C177.281 93.294 168.21 93.6811 166.942 97.6293C165.674 101.577 172.69 107.592 182.611 111.062C192.533 114.533 201.604 114.146 202.872 110.198Z" fill="black"/>
<path d="M201.189 108.7C202.009 106.147 195.441 101.546 186.518 98.4245C177.595 95.3032 169.696 94.8432 168.876 97.3972C168.056 99.9511 174.624 104.552 183.547 107.673C192.47 110.794 200.369 111.254 201.189 108.7Z" fill="#FFD300"/>
<path d="M76.0833 114.571C86.2214 110.036 93.1909 103.318 91.6501 99.5665C90.1092 95.8145 80.6415 96.4491 70.5033 100.984C60.3651 105.519 53.3956 112.237 54.9365 115.989C56.4773 119.741 65.9451 119.106 76.0833 114.571Z" fill="black"/>
<path d="M76.0472 111.092C84.6972 107.223 90.8851 102.079 89.8684 99.6034C88.8516 97.1276 81.0152 98.2572 72.3653 102.126C63.7153 105.996 57.5274 111.139 58.5441 113.615C59.5608 116.091 67.3972 114.961 76.0472 111.092Z" fill="#FFD300"/>
<path d="M145.131 68.1073L145.131 68.1073L145.134 68.1136C146.221 70.7503 146.382 73.4709 145.799 75.7218C145.216 77.9739 143.912 79.6949 142.109 80.498L142.107 80.4991C139.739 81.5608 136.844 80.8225 134.442 78.6143L133.108 77.388L132.809 79.1749C131.934 84.3965 128.354 87.9905 124.443 87.9905C119.93 87.9905 115.884 83.208 115.884 76.7798C115.884 70.3534 119.927 65.5719 124.438 65.569C126.17 65.5844 127.845 66.2452 129.161 67.4426L130.465 68.6289L130.788 66.896C130.992 65.8007 131.442 64.775 132.099 63.903C132.753 63.0345 133.592 62.3443 134.544 61.8854C136.333 61.0865 138.405 61.2918 140.347 62.3893C142.295 63.4906 144.067 65.4742 145.131 68.1073Z" fill="white" stroke="black" stroke-width="1.96416"/>
<path d="M135.785 55.4512C136.636 55.0851 137.556 54.9264 138.475 54.9873C139.375 55.018 140.262 55.2154 141.096 55.5702C141.931 55.9129 142.702 56.4039 143.376 57.0214C144.019 57.6173 144.586 58.297 145.063 59.0436C145.129 59.1466 145.155 59.2727 145.133 59.395C145.112 59.5172 145.046 59.626 144.949 59.6979C144.859 59.7648 144.749 59.7946 144.639 59.7814C144.53 59.7682 144.429 59.713 144.356 59.6265C143.859 59.014 143.292 58.4668 142.669 57.9968C142.074 57.5356 141.407 57.1855 140.697 56.9619C139.981 56.7147 139.227 56.6098 138.475 56.6527C137.77 56.699 137.071 56.8186 136.389 57.0095H136.298C136.196 57.0399 136.089 57.0485 135.984 57.0348C135.879 57.0211 135.778 56.9855 135.686 56.9299C135.595 56.8744 135.515 56.8001 135.451 56.7116C135.388 56.6231 135.342 56.5221 135.317 56.4148C135.275 56.2225 135.299 56.0209 135.384 55.8449C135.469 55.6689 135.611 55.5296 135.785 55.4512Z" fill="black"/>
<path d="M117.65 63.5878C116.971 63.7392 116.31 63.9665 115.678 64.2658C115.005 64.5427 114.387 64.9459 113.854 65.4554C113.31 65.9849 112.851 66.6037 112.498 67.2873C112.135 67.9921 111.852 68.7386 111.654 69.5117C111.614 69.6172 111.538 69.7041 111.442 69.7566C111.345 69.809 111.234 69.8236 111.128 69.7978C111.021 69.7719 110.928 69.7072 110.863 69.6155C110.799 69.5237 110.768 69.411 110.777 69.2976C110.899 68.4104 111.129 67.543 111.461 66.7163C111.802 65.8682 112.28 65.0877 112.874 64.4086C113.48 63.7139 114.198 63.1344 114.994 62.6956C115.805 62.2305 116.704 61.9583 117.627 61.8986C117.841 61.8921 118.049 61.973 118.206 62.1241C118.364 62.2752 118.459 62.4845 118.47 62.7075C118.482 62.9086 118.422 63.107 118.302 63.2649C118.182 63.4229 118.011 63.5293 117.821 63.564L117.65 63.5878Z" fill="black"/>
<path d="M109.682 92.4104C111.903 93.376 114.189 94.1711 116.521 94.7895C117.661 95.1345 118.869 95.3129 120.043 95.5627C121.217 95.8125 122.414 95.9196 123.611 95.9672C125.992 96.1578 128.385 96.11 130.757 95.8244C133.113 95.5563 135.432 95.0014 137.664 94.171C139.907 93.4078 142.042 92.3357 144.013 90.983C145 90.3124 145.947 89.5816 146.851 88.7942C147.735 87.9865 148.576 87.1288 149.37 86.2248C152.533 82.4777 154.843 78.0331 156.129 73.2231C156.159 73.1083 156.211 73.0009 156.282 72.9072C156.352 72.8136 156.44 72.7357 156.54 72.678C156.64 72.6204 156.75 72.5842 156.863 72.5716C156.977 72.559 157.091 72.5702 157.201 72.6046C157.408 72.6685 157.586 72.8115 157.698 73.0053C157.81 73.1991 157.848 73.4296 157.805 73.6514C156.803 78.9084 154.549 83.8175 151.251 87.9259C149.585 89.9962 147.634 91.7963 145.461 93.2669C143.32 94.7702 140.997 95.9702 138.553 96.8355C136.121 97.7027 133.6 98.2735 131.042 98.5366C128.501 98.834 125.935 98.834 123.394 98.5366C118.356 97.9574 113.461 96.4214 108.953 94.0044C108.753 93.8973 108.601 93.7133 108.529 93.4914C108.456 93.2695 108.469 93.0269 108.565 92.8149C108.659 92.6154 108.821 92.4597 109.019 92.3783C109.217 92.2969 109.438 92.2956 109.637 92.3748L109.682 92.4104Z" fill="black"/>
<path fill-rule="evenodd" clip-rule="evenodd" d="M129.767 73.7821C128.844 70.832 126.815 68.8812 125.208 69.4284C125.036 69.4891 124.875 69.5774 124.729 69.6901V69.7614C126.223 72.4498 126.245 75.3285 124.729 76.2087C124.546 76.3188 124.345 76.3952 124.137 76.4347C125.14 78.9804 126.975 80.5981 128.445 80.0985C129.915 79.5989 130.691 76.7559 129.767 73.7821Z" fill="black"/>
<path fill-rule="evenodd" clip-rule="evenodd" d="M142.818 68.4052C141.906 65.4671 139.866 63.5162 138.259 64.0515C138.085 64.1142 137.924 64.2067 137.78 64.3251V64.3965C139.273 67.073 139.296 69.9635 137.848 70.8319C137.663 70.9472 137.458 71.0239 137.244 71.0579C138.247 73.6154 140.082 75.2213 141.553 74.7336C143.023 74.2459 143.741 71.4029 142.818 68.4052Z" fill="black"/>
<path d="M219.001 186.979C218.909 188.371 216.63 192.927 216.06 195.805C215.927 196.205 215.925 196.639 216.055 197.04C216.185 197.441 216.44 197.785 216.778 198.018C217.42 198.421 218.115 198.725 218.841 198.922C219.012 197.169 219.479 195.461 220.22 193.878C221.178 191.594 222.397 189.893 222.978 189.893C223.127 189.893 223.195 189.988 223.206 190.143C223.206 190.857 221.816 193.509 221.121 195.52C220.71 196.709 220.904 197.554 221.633 198.054C222.309 198.501 223.066 198.801 223.856 198.934C223.594 198.363 224.255 196.281 225.224 194.057C226.364 191.511 227.31 189.977 227.857 189.977C228.016 189.977 228.073 190.072 228.096 190.226C228.153 190.916 226.877 193.474 226.204 195.437C225.782 196.626 225.988 197.494 226.717 197.994C227.411 198.452 228.186 198.759 228.997 198.898C228.734 198.327 229.475 196.245 230.353 194.021C231.025 192.308 231.88 190.357 231.755 188.965C231.751 188.71 231.697 188.457 231.596 188.224C231.495 187.991 231.349 187.782 231.167 187.611C230.985 187.439 230.772 187.308 230.54 187.226C230.307 187.144 230.062 187.112 229.817 187.134C229.228 187.162 228.652 187.324 228.129 187.607C227.605 187.891 227.147 188.289 226.785 188.775C226.787 188.528 226.741 188.283 226.65 188.055C226.559 187.826 226.425 187.62 226.256 187.446C226.087 187.273 225.886 187.137 225.666 187.047C225.445 186.956 225.21 186.913 224.973 186.919C224.195 187.004 223.447 187.278 222.788 187.718C222.129 188.157 221.578 188.752 221.178 189.453C221.199 189.185 221.164 188.915 221.075 188.663C220.987 188.41 220.847 188.18 220.665 187.99C220.181 187.539 219.615 187.195 219.001 186.979Z" fill="#D53634"/>
<path d="M158.467 187.372C158.387 188.763 156.267 193.01 155.686 195.996C155.551 196.388 155.534 196.814 155.636 197.218C155.737 197.621 155.953 197.983 156.255 198.256C156.948 198.745 157.721 199.096 158.535 199.291C158.708 197.554 159.163 195.86 159.88 194.283C160.689 192.225 161.989 190.452 162.456 190.452C162.616 190.452 162.684 190.548 162.695 190.702C162.764 191.416 161.556 194.021 160.974 195.829C160.564 197.019 160.78 197.875 161.51 198.375C162.225 198.849 163.023 199.173 163.858 199.326C163.596 198.755 164.257 196.674 165.112 194.449C165.863 192.876 166.301 191.16 166.4 189.406C166.395 189.132 166.339 188.863 166.233 188.612C166.128 188.362 165.976 188.136 165.786 187.948C165.596 187.76 165.372 187.613 165.127 187.516C164.882 187.419 164.621 187.374 164.359 187.383C163.577 187.488 162.832 187.795 162.193 188.277C161.554 188.759 161.041 189.401 160.701 190.143C160.75 189.834 160.729 189.517 160.64 189.217C160.551 188.918 160.396 188.644 160.188 188.418C159.706 187.939 159.125 187.581 158.489 187.372H158.467Z" fill="#D53634"/>
<path d="M70.9063 184.267C73.3569 183.969 73.3455 187.264 70.4959 187.621C70.2868 187.674 70.0689 187.676 69.8589 187.627C69.6489 187.579 69.4523 187.48 69.2842 187.34C69.116 187.201 68.9806 187.022 68.8884 186.819C68.7962 186.617 68.7495 186.395 68.752 186.17C68.8541 185.646 69.1222 185.174 69.513 184.829C69.9038 184.483 70.3946 184.285 70.9063 184.267Z" fill="#D53634"/>
<path d="M187.122 192.249C187.475 191.244 187.723 190.204 187.863 189.144C187.762 188.514 187.437 187.948 186.953 187.557C186.469 187.167 185.862 186.982 185.253 187.038C181.639 187.038 178.414 191.88 178.722 195.532C178.744 196.011 178.86 196.481 179.06 196.913C179.261 197.345 179.544 197.731 179.891 198.046C180.238 198.361 180.642 198.601 181.08 198.749C181.517 198.897 181.979 198.952 182.437 198.91C182.99 198.909 183.538 198.792 184.047 198.567C184.557 198.342 185.018 198.014 185.404 197.601C185.791 197.188 186.094 196.698 186.297 196.161C186.5 195.624 186.598 195.05 186.586 194.473C185.917 194.976 185.129 195.281 184.307 195.353C184.093 195.387 183.874 195.371 183.667 195.306C183.46 195.241 183.27 195.128 183.109 194.977C182.949 194.826 182.823 194.639 182.74 194.43C182.657 194.222 182.62 193.997 182.631 193.771C182.615 192.856 182.833 191.953 183.261 191.155C183.69 190.356 184.314 189.691 185.07 189.227C185.026 189.525 184.949 189.816 184.842 190.096C184.614 190.833 184.649 191.285 185.15 191.63C185.753 192.021 186.446 192.235 187.156 192.249H187.122Z" fill="#D53634"/>
<path d="M139.615 189.501C139.547 188.311 138.669 187.348 136.777 187.36C132.947 187.36 129.562 192.118 129.756 195.758C129.766 196.248 129.874 196.73 130.07 197.175C130.267 197.62 130.55 198.018 130.901 198.344C131.252 198.67 131.663 198.917 132.109 199.069C132.555 199.222 133.027 199.277 133.495 199.231C134.068 199.26 134.641 199.168 135.179 198.959C135.717 198.751 136.21 198.431 136.626 198.018C137.043 197.606 137.375 197.11 137.602 196.56C137.83 196.01 137.949 195.417 137.951 194.818C137.183 195.458 136.243 195.832 135.261 195.889C134.258 195.889 133.779 195.484 133.677 194.449C136.891 194.164 139.763 191.904 139.615 189.501ZM133.768 192.927C134.19 191.19 135.444 189.441 136.276 189.441C136.333 189.438 136.391 189.447 136.445 189.469C136.499 189.49 136.548 189.523 136.589 189.566C136.63 189.609 136.662 189.66 136.683 189.716C136.703 189.773 136.712 189.833 136.709 189.893C136.766 190.857 135.421 192.415 133.757 192.927H133.768Z" fill="#D53634"/>
<path d="M69.1413 199.874C68.7423 198.839 70.2127 194.64 71.0562 191.963C71.24 191.554 71.3158 191.102 71.2757 190.652C71.2357 190.202 71.0811 189.772 70.8282 189.406C70.3063 188.795 69.665 188.308 68.9475 187.978C68.5942 189.834 66.5767 193.498 65.9612 196.305C65.642 197.637 65.8586 198.363 66.5311 198.862C67.3284 199.368 68.2102 199.711 69.1299 199.874H69.1413Z" fill="#D53634"/>
<path d="M72.3645 188.668C72.4064 189.251 72.5657 189.819 72.8318 190.334C72.8967 190.468 72.9882 190.586 73.1002 190.68C73.2122 190.775 73.3422 190.843 73.4815 190.881C72.5829 192.811 72.0232 194.894 71.8288 197.031C71.8211 197.378 71.8838 197.724 72.0127 198.045C72.1416 198.365 72.3339 198.654 72.5769 198.892C72.82 199.13 73.1084 199.312 73.4233 199.426C73.7383 199.539 74.0727 199.583 74.4047 199.552C75.3582 199.472 76.2549 199.046 76.9396 198.349C77.6243 197.652 78.0541 196.727 78.1546 195.734C77.7411 195.985 77.2759 196.127 76.7983 196.15C76.6739 196.168 76.5473 196.157 76.4276 196.118C76.3078 196.079 76.1978 196.012 76.1053 195.924C76.0128 195.835 75.9401 195.726 75.8925 195.605C75.8448 195.484 75.8233 195.353 75.8294 195.223C76.0635 193.656 76.5047 192.131 77.1402 190.69C77.9905 190.56 78.8545 190.56 79.7048 190.69C79.6579 190.02 79.4753 189.367 79.169 188.775C79.034 188.594 78.8611 188.448 78.6636 188.347C78.4661 188.246 78.2492 188.193 78.0292 188.192C78.0194 188.145 78.0194 188.097 78.0292 188.05C78.1744 187.726 78.2409 187.37 78.223 187.013C78.2051 186.656 78.1033 186.31 77.9267 186.004C77.4492 185.324 76.8191 184.776 76.0916 184.41C75.6161 185.844 75.0643 187.25 74.4389 188.621C73.7541 188.702 73.0648 188.734 72.3759 188.716L72.3645 188.668Z" fill="#D53634"/>
<path d="M145.128 187.705C145.29 187.538 145.489 187.414 145.706 187.344C145.924 187.275 146.154 187.261 146.378 187.304C146.602 187.347 146.812 187.446 146.992 187.593C147.171 187.739 147.314 187.928 147.408 188.145C147.625 188.685 147.732 189.267 147.72 189.853C147.708 190.439 147.578 191.016 147.34 191.547C145.482 189.453 143.681 192.927 143.02 194.318C142.207 195.881 141.758 197.621 141.709 199.398C140.895 199.201 140.122 198.85 139.429 198.363C139.126 198.091 138.907 197.73 138.802 197.327C138.696 196.925 138.708 196.498 138.837 196.103C139.361 193.117 141.424 188.835 141.504 187.49C142.125 187.711 142.695 188.063 143.179 188.525C143.394 188.753 143.547 189.035 143.623 189.345C143.699 189.654 143.696 189.979 143.612 190.286C143.905 189.296 144.444 188.406 145.174 187.705H145.128Z" fill="#D53634"/>
<path d="M80.6842 201.563C81.9266 201.563 83.0322 200.195 84.343 197.066C83.9837 197.735 83.4726 198.302 82.8546 198.717C82.2366 199.132 81.5305 199.382 80.7982 199.445C80.3153 199.424 79.8589 199.209 79.5236 198.846C79.1882 198.483 78.9998 197.999 78.9973 197.494C78.7921 194.83 81.8354 190.452 82.0406 187.978C82.7744 188.174 83.4614 188.526 84.058 189.013C84.7989 189.715 84.7533 190.417 84.4342 191.499C84.001 192.986 83.1234 194.521 82.8042 195.889C82.6675 196.507 82.9866 196.567 83.4539 196.091C85.309 193.693 86.587 190.866 87.1811 187.847C87.8485 188.055 88.4662 188.407 88.9934 188.882C89.5861 189.441 89.6203 190.238 89.3239 191.547C88.5207 194.571 87.4839 197.523 86.2237 200.373C84.9243 203.216 83.5793 204.537 81.5619 204.56C81.0619 204.622 80.5552 204.544 80.0941 204.333C79.633 204.122 79.2342 203.786 78.9391 203.36C78.6439 202.935 78.463 202.434 78.4152 201.911C78.3673 201.388 78.4541 200.861 78.6667 200.385C79.1945 201.034 79.9331 201.458 80.7412 201.575L80.6842 201.563Z" fill="#D53634"/>
<path d="M175.965 189.275C175.897 188.085 175.007 187.11 173.127 187.122C169.297 187.122 165.912 191.88 166.106 195.52C166.116 196.01 166.223 196.492 166.42 196.937C166.617 197.382 166.9 197.78 167.25 198.106C167.601 198.432 168.013 198.679 168.459 198.831C168.905 198.984 169.377 199.039 169.844 198.993C170.419 199.022 170.993 198.929 171.532 198.72C172.07 198.511 172.563 198.19 172.98 197.776C173.396 197.362 173.728 196.865 173.955 196.314C174.182 195.762 174.3 195.168 174.301 194.568C173.535 195.213 172.593 195.588 171.611 195.639C170.608 195.639 170.129 195.246 170.027 194.211C173.252 193.926 176.09 191.666 175.965 189.275ZM170.118 192.736C170.539 191 171.793 189.251 172.637 189.251C172.693 189.249 172.75 189.26 172.803 189.282C172.855 189.304 172.903 189.338 172.943 189.38C172.982 189.423 173.013 189.474 173.033 189.529C173.053 189.585 173.062 189.644 173.058 189.703C173.127 190.607 171.782 192.177 170.118 192.736Z" fill="#D53634"/>
<path d="M63.8733 188.05C64.1293 188.04 64.3846 188.085 64.6232 188.182C64.8619 188.279 65.0788 188.427 65.2605 188.616C65.4422 188.804 65.5848 189.03 65.6795 189.278C65.7742 189.526 65.8189 189.793 65.811 190.06C65.6667 191.828 65.1821 193.547 64.3862 195.115C63.4858 197.34 62.7791 199.398 63.0298 199.969C62.2189 199.806 61.4451 199.483 60.7502 199.017C60.0322 198.518 59.8384 197.697 60.2715 196.472C60.887 194.663 62.1636 192.07 62.1066 191.368C62.1066 191.202 62.0382 191.119 61.8786 191.119C61.4341 191.119 60.1917 192.724 59.2115 194.985C58.4653 196.536 57.9796 198.21 57.7754 199.933C57.0059 199.738 56.2839 199.377 55.6553 198.874C55.3403 198.585 55.1178 198.202 55.0179 197.776C54.9181 197.351 54.9456 196.904 55.0968 196.495C55.9403 192.927 59.4623 184.433 59.5649 183.042C60.2914 183.342 60.951 183.796 61.5025 184.374C61.7988 184.691 61.9897 185.099 62.0471 185.538C62.1046 185.977 62.0255 186.424 61.8217 186.812C61.4113 188.002 60.8414 189.192 60.1234 190.785C61.2632 188.906 62.6651 188.002 63.8961 188.002L63.8733 188.05Z" fill="#D53634"/>
<path d="M102.741 190.357C102.616 188.751 101.818 187.621 100.621 187.633C99.9768 187.705 99.3586 187.939 98.8203 188.317C98.2821 188.694 97.8401 189.202 97.5326 189.798C97.527 189.404 97.4035 189.021 97.1792 188.704C96.7384 188.17 96.1997 187.733 95.5949 187.419C95.2188 189.168 91.7424 197.494 91.1725 201.063C91.0015 202.181 91.1725 202.681 91.7538 203.061C92.4376 203.526 93.1453 203.951 93.8738 204.334C93.6914 203.692 94.7059 199.862 95.4353 197.387C95.6397 197.954 96.0089 198.441 96.4913 198.778C96.9737 199.115 97.545 199.286 98.1253 199.267C100.667 199.255 103.049 194.473 102.741 190.357ZM96.6435 196.4C96.4814 196.398 96.3236 196.345 96.1913 196.247C96.0589 196.149 95.9582 196.012 95.9027 195.853C96.7005 193.319 98.1823 190.619 98.8776 190.607C99.0827 190.607 99.1739 190.714 99.1967 190.964C99.3221 192.736 97.6922 196.424 96.6435 196.436V196.4Z" fill="#D53634"/>
<path d="M109.055 187.978C109.217 187.811 109.415 187.688 109.633 187.618C109.851 187.548 110.081 187.534 110.305 187.578C110.529 187.621 110.739 187.72 110.919 187.866C111.098 188.013 111.241 188.202 111.335 188.418C111.552 188.959 111.658 189.541 111.647 190.127C111.635 190.713 111.505 191.29 111.266 191.82C109.42 189.727 107.608 193.2 106.947 194.592C106.139 196.157 105.69 197.895 105.636 199.671C104.821 199.477 104.048 199.126 103.356 198.636C103.051 198.366 102.83 198.006 102.722 197.603C102.615 197.2 102.625 196.773 102.752 196.376C103.288 193.391 105.339 189.108 105.431 187.764C106.047 187.987 106.613 188.339 107.095 188.799C107.309 189.026 107.463 189.309 107.539 189.618C107.615 189.927 107.611 190.252 107.528 190.559C107.819 189.578 108.345 188.69 109.055 187.978Z" fill="#D53634"/>
<path d="M120.294 190.999C120.311 190.544 120.239 190.09 120.082 189.664C119.926 189.239 119.687 188.851 119.382 188.525C119.077 188.199 118.712 187.941 118.308 187.767C117.904 187.593 117.471 187.507 117.034 187.514C113.763 187.514 110.492 191.761 110.799 195.841C110.794 196.317 110.882 196.789 111.06 197.228C111.237 197.667 111.499 198.063 111.83 198.391C112.16 198.719 112.552 198.973 112.981 199.136C113.41 199.299 113.866 199.368 114.321 199.338C117.786 199.267 120.613 195.175 120.294 190.999ZM115.017 196.079C114.606 196.079 114.23 195.674 114.162 194.889C114.002 192.677 115.632 190 116.624 189.988C116.966 189.988 117.182 190.369 117.228 190.952C117.388 193.164 115.997 196.079 115.017 196.079Z" fill="#D53634"/>
<path d="M121.763 187.669C122.571 187.707 123.37 187.867 124.133 188.145C124.547 188.26 124.903 188.536 125.128 188.917C125.352 189.297 125.429 189.753 125.342 190.191C125.159 191.975 124.544 193.759 124.396 195.615C124.396 195.924 124.555 195.948 124.738 195.722C125.877 194.414 128.26 189.536 128.157 187.574C128.681 187.657 129.185 187.847 129.639 188.133C129.913 188.32 130.121 188.596 130.23 188.918C130.339 189.241 130.344 189.592 130.243 189.917C129.442 193.066 127.783 195.905 125.467 198.089C124.67 198.836 123.643 199.258 122.572 199.279C121.364 199.279 120.817 198.577 120.714 197.209C120.497 194.378 122.059 189.12 121.785 187.693L121.763 187.669Z" fill="#D53634"/>
<path d="M197.742 188.418C197.321 187.952 196.802 187.593 196.226 187.371C196.112 187.633 195.918 188.157 195.645 188.775C195.543 188.317 195.289 187.912 194.928 187.631C194.567 187.35 194.122 187.212 193.673 187.241C190.368 187.241 187.245 193.117 187.552 196.448C187.723 198.28 188.692 198.827 189.627 198.827C190.561 198.827 191.906 198.03 192.887 196.174C192.777 196.526 192.784 196.906 192.906 197.253C193.028 197.6 193.258 197.894 193.559 198.089C194.255 198.551 195.028 198.87 195.839 199.029C195.394 197.435 197.355 192.808 197.947 190.893C198.38 189.632 198.232 189.013 197.742 188.418ZM194.186 191.987C193.263 193.866 192.248 195.425 191.599 195.425C191.348 195.425 191.234 195.306 191.234 195.092C191.12 193.771 193.24 189.596 194.425 189.596C194.575 189.614 194.715 189.679 194.827 189.784C194.939 189.888 195.018 190.026 195.052 190.179C194.744 190.809 194.448 191.452 194.175 191.975L194.186 191.987Z" fill="#D53634"/>
<path d="M206.419 192.605C206.305 191.785 207.445 189.977 207.377 189.037C207.308 188.097 205.804 186.979 204.459 186.979C202.179 186.979 199.204 189.191 199.353 191.107C199.501 193.022 202.612 193.617 202.681 194.521C202.681 194.889 202.202 195.163 201.153 195.175C199.637 195.175 198.714 194.461 198.657 193.688C198.271 193.976 197.966 194.368 197.778 194.823C197.589 195.278 197.522 195.778 197.586 196.269C197.711 197.804 199.364 198.767 201.666 198.755C204.607 198.755 206.226 197.149 206.112 195.187C205.918 192.701 202.612 192.272 202.521 191.035C202.453 190.238 203.467 189.346 204.607 188.942C204.337 189.497 204.119 190.079 203.957 190.678C203.896 190.891 203.909 191.119 203.992 191.323C204.075 191.527 204.224 191.695 204.413 191.797C205.022 192.217 205.703 192.508 206.419 192.653V192.605Z" fill="#D53634"/>
<path d="M156.449 189.394C156.381 188.204 155.503 187.241 153.611 187.253C149.781 187.253 146.396 192.011 146.59 195.651C146.6 196.141 146.707 196.623 146.904 197.068C147.101 197.513 147.384 197.911 147.735 198.237C148.086 198.563 148.497 198.81 148.943 198.962C149.389 199.115 149.861 199.17 150.329 199.124C150.903 199.153 151.477 199.06 152.016 198.851C152.555 198.642 153.048 198.321 153.464 197.907C153.881 197.493 154.213 196.996 154.44 196.444C154.667 195.893 154.784 195.299 154.785 194.699C154.016 195.346 153.07 195.72 152.084 195.77C151.092 195.77 150.613 195.377 150.511 194.342C153.737 194.057 156.609 191.797 156.449 189.394ZM150.602 192.82C151.024 191.083 152.278 189.334 153.11 189.334C153.167 189.333 153.224 189.343 153.277 189.365C153.331 189.388 153.379 189.421 153.419 189.463C153.46 189.505 153.492 189.556 153.513 189.611C153.534 189.667 153.544 189.727 153.543 189.786C153.611 190.738 152.266 192.308 150.602 192.82Z" fill="#D53634"/>
<path d="M216.983 188.989C216.914 187.8 216.037 186.836 214.145 186.848C210.326 186.848 206.941 191.606 207.135 195.246C207.145 195.735 207.252 196.216 207.448 196.661C207.645 197.105 207.926 197.502 208.276 197.827C208.625 198.153 209.035 198.4 209.48 198.554C209.925 198.707 210.395 198.764 210.862 198.72C211.436 198.75 212.01 198.659 212.549 198.451C213.087 198.243 213.58 197.923 213.997 197.51C214.414 197.098 214.746 196.601 214.973 196.05C215.2 195.499 215.318 194.906 215.319 194.306C214.552 194.948 213.611 195.323 212.629 195.377C211.626 195.377 211.158 194.973 211.044 193.938C214.281 193.652 217.12 191.392 216.983 188.989ZM211.147 192.415C211.557 190.678 212.823 188.942 213.655 188.93C213.769 188.93 213.88 188.977 213.961 189.062C214.042 189.147 214.088 189.262 214.088 189.382C214.156 190.357 212.811 191.904 211.147 192.415Z" fill="#D53634"/>
<path d="M136.685 186.967C138.566 185.778 140.025 184.933 140.606 184.992C140.606 184.1 140.196 183.422 139.546 183.458C138.706 183.695 137.952 184.188 137.381 184.873C137.039 184.053 136.685 183.589 136.036 183.684C135.604 183.783 135.197 183.977 134.841 184.251C134.486 184.526 134.19 184.876 133.973 185.278C134.531 185.195 135.568 185.67 136.685 187.027V186.967Z" fill="#D53634"/>
<path d="M144.299 187.145C146.191 185.956 147.638 185.111 148.22 185.159C148.22 184.267 147.821 183.589 147.171 183.624C146.328 183.856 145.573 184.35 145.005 185.04C144.652 184.219 144.299 183.767 143.649 183.791C143.218 183.892 142.811 184.086 142.456 184.36C142.101 184.635 141.804 184.984 141.586 185.385C142.156 185.302 143.193 185.777 144.299 187.145Z" fill="#D53634"/>
<path d="M185.037 186.658C186.918 185.468 188.377 184.624 188.958 184.671C188.958 183.779 188.548 183.101 187.898 183.137C187.057 183.374 186.304 183.867 185.732 184.552C185.39 183.731 185.026 183.279 184.387 183.303C183.955 183.405 183.548 183.601 183.192 183.878C182.837 184.154 182.541 184.506 182.324 184.909C182.883 184.814 183.92 185.29 185.037 186.658Z" fill="#D53634"/>
<path d="M174.731 182.816C173.589 184.086 172.087 184.941 170.445 185.254C170.686 185.679 171.008 186.048 171.391 186.337C172.166 186.813 173.078 186.622 174.309 185.754C175.54 184.885 175.666 184.207 175.449 183.672C175.273 183.335 175.028 183.042 174.731 182.816Z" fill="#D53634"/>
<path fill-rule="evenodd" clip-rule="evenodd" d="M160.838 176.487C151.936 176.487 145.166 170.373 144.356 161.63C143.684 154.267 146.704 145.738 152.244 139.374C157.031 133.878 162.947 130.856 168.908 130.856C175.747 130.856 181.354 135.615 181.936 141.931C182.209 144.845 181.195 147.879 180.386 150.424C180.18 151.055 179.907 151.899 179.827 152.233C179.739 152.937 179.517 153.617 179.172 154.23C178.827 154.843 178.368 155.377 177.821 155.801C178.148 156.523 178.319 157.311 178.323 158.109C178.38 160.528 177.968 162.933 177.111 165.182C176.254 167.43 174.97 169.474 173.337 171.191C171.703 172.908 169.754 174.262 167.606 175.172C165.458 176.082 163.156 176.53 160.838 176.487ZM166.229 155.409C166.671 155.384 167.108 155.3 167.529 155.159C167.061 154.921 166.617 154.671 166.206 154.409C166.173 154.742 166.173 155.076 166.206 155.409H166.229Z" fill="black"/>
<path fill-rule="evenodd" clip-rule="evenodd" d="M168.408 140.313C167.683 140.313 166.967 140.151 166.307 139.839C165.646 139.528 165.057 139.073 164.578 138.505C163.482 137.036 162.068 135.858 160.452 135.067H160.133C159.203 135.073 158.289 134.812 157.49 134.314C156.691 133.815 156.039 133.098 155.603 132.24C155.167 131.382 154.965 130.416 155.018 129.446C155.071 128.477 155.378 127.541 155.904 126.74C158.002 123.481 161.774 119.913 166.163 119.722H166.573C168.277 119.732 169.933 120.307 171.303 121.364C172.922 120.208 174.806 119.523 176.763 119.377H177.116C178.182 119.373 179.238 119.597 180.218 120.034C181.198 120.472 182.082 121.115 182.815 121.923C183.698 122.94 184.376 124.132 184.811 125.427C185.245 126.722 185.427 128.095 185.346 129.465C185.287 130.827 184.729 132.114 183.787 133.059C182.846 134.005 181.592 134.536 180.285 134.544C179.396 134.782 177.059 135.888 171.018 139.599C170.224 140.075 169.323 140.321 168.408 140.313Z" fill="black"/>
<path fill-rule="evenodd" clip-rule="evenodd" d="M201.632 177.165C201.299 177.169 200.967 177.137 200.64 177.07C197.477 176.49 194.451 175.278 191.727 173.502C191.533 173.383 191.362 173.252 191.18 173.121C188.772 175.232 185.741 176.412 182.597 176.464C177.684 176.464 172.088 173.359 171.199 164.651C170.378 157.062 174.174 146.428 180.238 139.35C184.558 134.294 189.47 131.63 194.428 131.63C196.217 131.616 197.985 132.023 199.603 132.819C200.384 132.342 201.274 132.091 202.179 132.094C202.762 132.091 203.341 132.196 203.889 132.403C206.436 133.343 208.736 134.895 210.602 136.935C214.386 141.313 213.611 145.94 212.517 149.485C212.084 150.912 211.445 152.732 210.705 154.838C209.325 158.751 206.145 167.923 206.51 170.421C206.739 171.207 206.787 172.039 206.651 172.849C206.515 173.659 206.199 174.424 205.727 175.083C205.256 175.741 204.643 176.275 203.937 176.641C203.232 177.007 202.454 177.195 201.666 177.189L201.632 177.165Z" fill="black"/>
<path fill-rule="evenodd" clip-rule="evenodd" d="M219.036 176.535C209.222 176.535 202.189 171.563 201.528 164.164C201.225 161.733 201.572 159.263 202.529 157.026C203.487 154.788 205.018 152.87 206.954 151.483L207.239 151.305C206.953 150.459 206.766 149.58 206.68 148.688C206.373 145.214 207.683 141.693 210.476 138.505C214.771 133.703 220.712 130.868 227.003 130.619H227.151C233.112 130.619 240.521 135.448 241.068 141.681C241.319 144.441 240.282 147.165 239.279 149.794C238.905 150.71 238.582 151.647 238.31 152.601C238.361 153.366 238.253 154.134 237.996 154.852C237.738 155.57 237.336 156.222 236.817 156.765H236.76C237.133 157.822 237.371 158.926 237.466 160.048C237.641 161.959 237.427 163.887 236.837 165.705C236.248 167.523 235.297 169.191 234.047 170.599C230.799 174.441 225.43 176.535 219.036 176.535Z" fill="black"/>
<path fill-rule="evenodd" clip-rule="evenodd" d="M14.4294 177.165C14.0733 177.161 13.7183 177.121 13.3694 177.046C10.137 176.283 7.07839 174.869 4.36498 172.883C1.00256 169.98 -0.125848 165.972 0.945567 160.916C2.08537 155.67 4.51315 149.639 6.64458 144.263C7.83383 141.627 8.84688 138.908 9.67646 136.126C9.80109 134.82 10.3873 133.609 11.3207 132.729C12.2542 131.85 13.4681 131.364 14.7258 131.368C15.3157 131.37 15.9012 131.475 16.4583 131.677C18.3366 132.371 20.107 133.349 21.7128 134.58C22.2585 134.06 22.8374 133.579 23.4453 133.14C25.2348 131.863 27.3416 131.156 29.509 131.106C31.2054 131.127 32.8625 131.641 34.2942 132.591C35.7258 133.541 36.8752 134.889 37.613 136.483C38.6312 138.894 39.108 141.516 39.0073 144.148C38.9066 146.781 38.2308 149.355 37.0317 151.673C36.6187 152.378 36.055 152.974 35.3846 153.413C34.7143 153.853 33.9555 154.125 33.1678 154.207C33.0008 154.219 32.8333 154.219 32.6663 154.207C31.9589 154.208 31.2592 154.055 30.6116 153.758C29.9641 153.461 29.3828 153.027 28.9049 152.482L28.7226 152.28C28.335 152.458 26.3632 153.577 23.3541 159.417C20.345 165.258 19.4104 170.123 19.5244 171.384C19.5976 172.212 19.4831 173.046 19.19 173.819C18.8969 174.592 18.4336 175.282 17.8374 175.833C16.8951 176.696 15.6831 177.17 14.4294 177.165Z" fill="black"/>
<path fill-rule="evenodd" clip-rule="evenodd" d="M56.0788 177.165C55.7498 177.169 55.4213 177.137 55.0986 177.07C51.932 176.489 48.9021 175.277 46.1739 173.501C45.9855 173.384 45.8029 173.257 45.6268 173.121C43.2045 175.22 40.1692 176.394 37.0213 176.451C32.0859 176.451 26.4895 173.347 25.6233 164.616C24.8368 157.062 28.6779 146.451 34.7417 139.385C39.0957 134.33 44.0311 131.653 49.012 131.653C50.8004 131.641 52.5687 132.048 54.1867 132.843C54.9712 132.362 55.8642 132.107 56.7741 132.105C57.3606 132.104 57.943 132.208 58.4952 132.415C61.0202 133.363 63.3019 134.906 65.163 136.923C68.97 141.348 68.1721 145.975 67.0551 149.52C66.622 150.936 65.9837 152.744 65.2314 154.826C63.8295 158.751 60.5354 167.911 60.9458 170.444C61.173 171.231 61.2196 172.062 61.082 172.87C60.9445 173.679 60.6264 174.443 60.1537 175.099C59.681 175.756 59.0669 176.287 58.3609 176.65C57.655 177.013 56.8771 177.198 56.0902 177.189L56.0788 177.165Z" fill="black"/>
<path fill-rule="evenodd" clip-rule="evenodd" d="M87.995 177.106C87.5488 177.106 87.1044 177.046 86.6729 176.927C83.6053 176.148 80.7257 174.715 78.2155 172.716C75.712 174.963 72.5349 176.225 69.2338 176.285C64.2985 176.285 58.702 173.168 57.8358 164.449C57.0379 156.765 60.7537 146.416 66.8745 139.29C71.2057 134.27 76.1069 131.618 81.0764 131.618C82.2925 131.615 83.5023 131.799 84.6668 132.165C85.8067 129.179 86.7362 126.109 87.4479 122.982C87.5374 121.651 88.107 120.405 89.042 119.496C89.977 118.586 91.2077 118.08 92.4859 118.081C93.1499 118.081 93.8077 118.214 94.4235 118.473C97.3993 119.748 100.109 121.615 102.402 123.969C105.537 127.312 106.255 131.63 104.568 136.828C103.565 139.897 102.037 143.965 100.419 148.355C97.8202 155.349 92.976 168.375 92.9988 171.325C93.0723 172.055 92.9979 172.792 92.7805 173.49C92.563 174.188 92.2073 174.831 91.7366 175.376C91.2658 175.921 90.6904 176.357 90.0478 176.655C89.4052 176.953 88.7097 177.107 88.0064 177.106H87.995Z" fill="black"/>
<path fill-rule="evenodd" clip-rule="evenodd" d="M105.911 177.272C105.629 177.272 105.347 177.248 105.068 177.201C101.56 176.571 98.1987 175.251 95.1628 173.311C91.2191 170.456 89.9311 166.019 91.3445 160.107C92.6979 154.967 94.4868 149.963 96.6902 145.155C98.0695 142.176 99.2132 139.085 100.11 135.912C100.335 134.704 100.957 133.615 101.868 132.834C102.779 132.052 103.923 131.626 105.102 131.63C105.795 131.629 106.481 131.775 107.119 132.058C110.006 133.338 112.59 135.263 114.688 137.696C118.745 142.787 116.967 148.402 116.375 150.329L115.155 154.112C113.696 158.608 110.698 167.827 110.733 170.468C110.952 171.255 110.995 172.083 110.857 172.89C110.719 173.696 110.404 174.458 109.938 175.117C109.471 175.776 108.865 176.313 108.166 176.687C107.468 177.061 106.696 177.261 105.911 177.272Z" fill="black"/>
<path fill-rule="evenodd" clip-rule="evenodd" d="M111.243 141.717C105.214 141.717 100.21 138.041 99.5944 133.164C99.429 131.708 99.5456 130.233 99.9372 128.825C100.329 127.417 100.987 126.105 101.874 124.968C102.776 123.777 103.899 122.787 105.176 122.06C106.453 121.332 107.857 120.881 109.306 120.733C109.741 120.686 110.179 120.662 110.616 120.662C116.52 120.662 121.285 124.54 122.014 129.881C122.19 131.251 122.096 132.644 121.74 133.976C121.383 135.307 120.771 136.548 119.94 137.625C119.036 138.783 117.917 139.738 116.649 140.431C115.382 141.124 113.992 141.542 112.565 141.658C112.121 141.658 111.688 141.658 111.266 141.658L111.243 141.717Z" fill="black"/>
<path fill-rule="evenodd" clip-rule="evenodd" d="M124.408 176.285C115.586 176.285 109.363 170.337 108.553 161.071C108.301 157.086 108.834 153.09 110.12 149.33C111.406 145.569 113.418 142.124 116.03 139.207C120.59 133.925 126.596 130.88 132.352 130.88C140.559 130.88 146.611 136.994 147.398 146.094C147.732 150.141 147.268 154.216 146.035 158.068C144.802 161.921 142.826 165.469 140.228 168.493C138.265 170.88 135.841 172.808 133.115 174.151C130.389 175.493 127.422 176.221 124.408 176.285Z" fill="black"/>
<path fill-rule="evenodd" clip-rule="evenodd" d="M174.342 151.507C174.502 149.758 176.702 145.166 176.44 142.335C176.132 138.898 172.769 136.066 168.461 136.066C157.496 136.066 147.944 150.222 148.982 161.047C149.609 167.851 154.92 171.098 160.38 171.098C162.023 171.133 163.657 170.819 165.181 170.175C166.705 169.532 168.088 168.572 169.247 167.354C170.405 166.136 171.314 164.686 171.92 163.091C172.525 161.495 172.814 159.788 172.769 158.073C170.718 159.56 168.319 160.439 165.828 160.619C162.887 160.619 161.029 159.429 160.71 155.86C160.266 150.995 163.845 144.12 167.902 142.502C167.767 143.377 167.553 144.238 167.264 145.071C166.592 147.224 166.717 148.569 168.233 149.58C170.086 150.753 172.199 151.404 174.365 151.471L174.342 151.507Z" fill="#FFD300"/>
<path fill-rule="evenodd" clip-rule="evenodd" d="M167.97 134.901C173.669 131.404 178.035 128.953 179.801 129.108C179.904 126.479 178.513 124.469 176.553 124.564C174.593 124.659 172.267 126.527 170.033 128.703C168.951 126.253 167.856 124.909 165.896 124.992C163.935 125.075 161.337 127.026 159.695 129.667C161.405 129.405 164.562 130.857 167.97 134.901Z" fill="#FFD300"/>
<path fill-rule="evenodd" clip-rule="evenodd" d="M206.371 140.397C205.07 139.002 203.479 137.94 201.721 137.292C201.39 138.029 200.82 139.588 200.034 141.408C199.68 140.033 198.885 138.827 197.781 137.991C196.678 137.155 195.332 136.74 193.97 136.816C183.963 136.816 174.73 154.076 175.79 163.926C176.372 169.338 179.21 171.063 182.173 171.063C185.433 171.063 188.955 168.755 191.953 163.295C191.474 165.924 192.203 167.744 194.061 168.957C196.232 170.362 198.637 171.326 201.151 171.8C199.76 167.042 205.505 153.446 207.215 147.784C208.377 143.965 207.887 142.133 206.371 140.397ZM195.737 150.841C192.99 156.372 190.038 160.964 187.998 160.964C187.857 160.986 187.714 160.976 187.578 160.936C187.442 160.895 187.315 160.825 187.207 160.729C187.099 160.633 187.012 160.514 186.952 160.38C186.891 160.246 186.859 160.101 186.858 159.953C186.493 156.039 192.751 143.763 196.329 143.763C196.783 143.81 197.212 144.003 197.555 144.317C197.899 144.63 198.14 145.048 198.244 145.512C197.412 147.403 196.603 149.282 195.737 150.829V150.841Z" fill="#FFD300"/>
<path fill-rule="evenodd" clip-rule="evenodd" d="M232.804 152.887C232.428 150.424 235.836 145.012 235.574 142.062C235.334 139.326 230.741 135.829 226.683 135.829C219.605 135.829 210.817 142.335 211.319 148.093C211.82 153.85 221.292 155.694 221.577 158.43C221.668 159.524 220.152 160.357 217.018 160.357C212.458 160.357 209.598 158.156 209.392 155.837C208.238 156.7 207.334 157.878 206.779 159.242C206.224 160.606 206.04 162.103 206.247 163.569C206.657 168.16 211.695 171.11 218.693 171.11C227.595 171.11 232.576 166.352 232.052 160.488C231.391 153.018 221.338 151.65 221.007 147.95C220.79 145.571 223.811 142.883 227.287 141.717C226.466 143.375 225.82 145.122 225.361 146.927C225.187 147.571 225.232 148.257 225.49 148.869C225.748 149.481 226.202 149.981 226.774 150.282C228.639 151.537 230.71 152.421 232.884 152.887H232.804Z" fill="#FFD300"/>
<path fill-rule="evenodd" clip-rule="evenodd" d="M25.8836 137.435C23.5144 139.389 21.6593 141.939 20.4923 144.845C20.7727 143.955 20.8147 143.001 20.6138 142.087C20.413 141.173 19.9768 140.333 19.3525 139.659C17.9291 138.263 16.234 137.204 14.3829 136.554C14.0182 140.527 7.39595 153.137 5.52667 161.963C4.7972 165.401 5.59506 167.292 7.15659 168.636C9.23559 170.101 11.5531 171.157 13.9954 171.753C13.7219 168.636 15.5569 162.237 18.4178 156.777C22.1678 149.568 25.5074 146.868 28.2885 146.868C29.0403 146.866 29.7828 147.041 30.4613 147.378C31.1399 147.716 31.7373 148.208 32.2095 148.819C32.9688 147.277 33.4033 145.583 33.4839 143.851C33.5645 142.12 33.2893 140.39 32.6768 138.779C31.3204 136.019 28.6533 135.543 25.838 137.435H25.8836Z" fill="#FFD300"/>
<path fill-rule="evenodd" clip-rule="evenodd" d="M60.966 140.397C59.662 139.006 58.0716 137.944 56.3155 137.292C55.985 138.041 55.4037 139.588 54.6058 141.408C54.2587 140.035 53.4679 138.829 52.3671 137.995C51.2664 137.16 49.9232 136.748 48.5649 136.828C38.5346 136.828 29.1882 154.076 30.2254 163.914C30.7839 169.314 33.6449 171.051 36.5969 171.051C39.8568 171.051 43.4358 168.755 46.4221 163.295C45.9319 165.924 46.65 167.744 48.5079 168.957C50.681 170.366 53.0907 171.331 55.6089 171.8C54.2297 167.042 60.0427 153.458 61.7866 147.784C62.9606 143.965 62.4933 142.145 60.966 140.397ZM50.2518 150.841C47.4707 156.36 44.4502 160.952 42.4669 160.952C42.327 160.972 42.1847 160.961 42.0491 160.92C41.9135 160.879 41.7878 160.808 41.6802 160.712C41.5726 160.617 41.4856 160.499 41.4247 160.366C41.3639 160.233 41.3306 160.088 41.3271 159.941C40.9966 156.027 47.3225 143.763 50.9015 143.763C51.3567 143.808 51.7865 144.002 52.1287 144.319C52.4709 144.635 52.7078 145.057 52.805 145.523C51.9615 147.403 51.0839 149.294 50.2632 150.841H50.2518Z" fill="#FFD300"/>
<path fill-rule="evenodd" clip-rule="evenodd" d="M98.3421 127.597C96.5366 125.755 94.4083 124.293 92.0732 123.291C91.9364 125.385 89.634 132.367 86.4768 140.872C86.0492 139.631 85.2492 138.567 84.1957 137.838C83.1422 137.11 81.8915 136.755 80.6296 136.828C70.5993 136.828 61.4239 153.945 62.3927 163.783C62.9512 169.184 65.8121 170.92 68.7642 170.92C72.1038 170.92 75.9564 168.541 79.0225 162.593C78.7996 163.675 78.8622 164.799 79.2034 165.847C79.5446 166.894 80.1518 167.825 80.9601 168.541C82.8878 170.06 85.096 171.145 87.4456 171.729C86.9327 166.662 96.0511 144.905 99.2654 135.067C100.291 131.987 100.257 129.691 98.3421 127.597ZM82.4989 150.841C79.7747 157.11 76.7998 160.952 74.7824 160.952C74.6395 160.972 74.4943 160.961 74.3556 160.92C74.2168 160.88 74.0875 160.81 73.9755 160.715C73.8635 160.621 73.7711 160.503 73.7041 160.37C73.637 160.237 73.5967 160.091 73.5856 159.941C73.2323 156.027 79.41 143.763 82.989 143.763C83.4032 143.807 83.7959 143.976 84.1182 144.251C84.4405 144.526 84.678 144.894 84.8013 145.309C84.0148 147.272 83.2169 149.152 82.4989 150.841Z" fill="#FFD300"/>
<path fill-rule="evenodd" clip-rule="evenodd" d="M105.491 171.884C102.696 171.389 100.014 170.356 97.5807 168.838C95.5291 167.351 94.868 165.198 95.7912 161.285C97.6377 153.065 103.701 142.252 104.739 136.828C106.9 137.783 108.843 139.206 110.438 141.003C112.045 143.025 112.17 145.381 111.167 148.557C108.682 156.443 104.271 168.779 105.468 171.884H105.491Z" fill="#FFD300"/>
<path fill-rule="evenodd" clip-rule="evenodd" d="M109.373 125.92C107.88 126.088 106.508 126.854 105.545 128.057C104.583 129.259 104.104 130.804 104.21 132.367C104.506 134.746 108.062 136.602 111.653 136.257C112.345 136.24 113.026 136.073 113.653 135.767C114.28 135.46 114.84 135.022 115.296 134.478C115.753 133.935 116.096 133.299 116.305 132.61C116.513 131.921 116.583 131.194 116.508 130.476C116.166 127.668 113.18 125.551 109.373 125.92Z" fill="#FFD300"/>
<path fill-rule="evenodd" clip-rule="evenodd" d="M141.893 146.535C141.289 139.588 137.003 136.15 131.908 136.15C121.958 136.15 112.144 148.545 113.181 160.488C113.797 167.494 118.23 170.873 123.964 170.873C134.484 170.873 143.033 158.858 141.893 146.535ZM126.004 161.428C124.739 161.428 123.599 160.238 123.382 157.859C122.812 151.328 127.691 143.442 130.723 143.442C131.76 143.442 132.41 144.631 132.558 146.273C133.15 152.863 128.956 161.428 126.015 161.428H126.004Z" fill="#FFD300"/>
<path d="M166.101 158.121C167.6 158.121 168.814 156.853 168.814 155.29C168.814 153.726 167.6 152.459 166.101 152.459C164.603 152.459 163.389 153.726 163.389 155.29C163.389 156.853 164.603 158.121 166.101 158.121Z" fill="black"/>
</svg>
